<?xml version="1.0" encoding="utf-8"?>
<!-- Generator: Adobe Illustrator 28.0.0, SVG Export Plug-In . SVG Version: 6.00 Build 0)  -->
<svg version="1.1" id="Capa_1" xmlns="http://www.w3.org/2000/svg" xmlns:xlink="http://www.w3.org/1999/xlink" x="0px" y="0px"
	 viewBox="0 0 500 321.05" style="enable-background:new 0 0 500 321.05;" xml:space="preserve">
<style type="text/css">
	.st0{fill-rule:evenodd;clip-rule:evenodd;}
	.st1{fill-rule:evenodd;clip-rule:evenodd;fill:#0038A8;}
	.st2{fill:#6F6F6E;}
	.st3{fill:#FF9E18;}
</style>
<g>
	<path class="st0" d="M0.64,233.71l25-0.26l-0.49,34.51l31.86-34.51h6.05l5.88,34.25l24.84-34.25h8.17l-34.31,46.31H55.38
		l-3.76-32.01l-30.23,32.01H10.12l0.16-40.04c-1.69-2.79-4.9-4.01-9.64-3.63C-0.21,235.29-0.21,234.5,0.64,233.71"/>
	<path class="st0" d="M126.36,235.25l28.73-3.62l-3.72,11.8c5-3.75,10-6.69,15-9.14c6.01-2.93,29.88-6.41,28.58,7.61l-15.06,37.22
		h-15.12l13.36-33.74c1.97-11.05-16.3-8.73-30.16,5.72l-11.57,28.01h-15.58l14.66-35.43c0.86-4.98-0.52-6.58-9.67-6.3
		C124.82,237.08,125.06,235.83,126.36,235.25"/>
	<path class="st0" d="M240.91,258.41l2.93-7.01c2.41-8.53,0.08-15.99-10.22-15.07c-19.34,1.99-38.01,37.93-14.4,37.74
		C228.12,274.13,236.33,266.7,240.91,258.41 M235.07,272.39c-14.19,9.66-41.49,12.64-43.11-6.16c-0.91-10.56,7.53-23.18,19.93-30.06
		c7.47-4.15,16.12-5.51,23.26-5.1c6.63,0.38,11.96,2.59,13.82,8.08l7.8-18.66c1.68-4.86-1.13-7.03-8.53-6.81
		c-1.04-0.19-0.64-2.51,1.22-2.82l26.95-2.17l-27.91,70.39h-16.22L235.07,272.39z"/>
	<path class="st1" d="M269.8,235.25l28.73-3.62l-3.73,11.8c5-3.75,8.6-6.69,13.6-9.14c6.01-2.93,29.89-6.41,28.58,7.61l-0.43,1.05
		c4.52-3.39,8.86-6.2,13.28-8.66c6.01-3.36,29.88-7.12,28.58,7.61l-15.06,37.22h-14.77l13.88-33.74c1.94-12.1-15.19-9.19-28.9,4.98
		l-11.64,28.76H306.8l13.36-33.74c1.97-11.05-14.9-8.73-28.76,5.72l-11.57,28.01h-15.58l14.66-35.43c0.86-4.98-0.52-6.58-9.67-6.3
		C268.26,237.08,268.5,235.83,269.8,235.25"/>
	<path class="st1" d="M442.25,234.2l28.73-3.62l-3.73,11.8c5-3.75,8.7-7.74,13.7-10.18c3.21-1.57,11.86-2.99,19.05-1.84l-6.94,10.57
		c-3.83-4.33-18.12-1.84-29.22,9.14l-11.57,28.01H436.7l14.65-35.43c0.86-4.98-0.52-6.58-9.67-6.3
		C440.7,236.03,440.94,234.78,442.25,234.2"/>
	<path class="st1" d="M412.5,265.18l4-9.18c-13.7-0.46-23.21,2.61-26.65,10.81c-1.96,4.89,1.48,8.49,10.34,6.47
		C405.54,271.77,409.56,269.07,412.5,265.18 M417.82,252.97c-18.91-1.47-39.85,4-44.49,14.69c-5.4,14.05,19.85,15.79,35.69,5.53
		l-2.23,5.13h16.92l11.95-32.28c8.84-18.72-21.52-17.93-35.33-13.52c-6.85,2.19-12.53,6.04-16.7,12h18.89
		c2.8-12.49,23.91-13.45,20.31-3.02L417.82,252.97z"/>
	<polyline class="st2" points="259.93,290.54 265.54,290.54 261.21,301.77 271.42,301.77 275.73,290.54 281.36,290.54 269.89,320.3 
		264.31,320.3 269.5,306.79 259.28,306.79 254.07,320.3 248.51,320.3 259.93,290.54 	"/>
	<path class="st2" d="M326.83,289.79c4.09,0,7.13,1.32,9.14,3.95c2.01,2.63,2.51,5.97,1.51,10.01c-0.77,3.1-2.28,6.03-4.52,8.77
		c-2.25,2.74-4.86,4.85-7.83,6.32c-2.97,1.47-6.15,2.21-9.54,2.21c-4.23,0-7.31-1.25-9.22-3.76c-1.91-2.51-2.36-5.81-1.34-9.91
		c1.15-4.65,3.65-8.65,7.5-12C316.82,291.66,321.59,289.79,326.83,289.79 M325.33,295.08c-2.13,0-4.2,0.52-6.22,1.55
		c-2.02,1.03-3.8,2.52-5.36,4.45c-1.56,1.94-2.59,3.93-3.1,6c-0.6,2.44-0.37,4.51,0.71,6.21c1.08,1.7,3.02,2.55,5.82,2.55
		c3.25,0,6.29-1.15,9.13-3.44c2.84-2.29,4.66-5.08,5.47-8.36c0.67-2.71,0.41-4.88-0.79-6.51
		C329.81,295.89,327.92,295.08,325.33,295.08z"/>
	<polyline class="st2" points="374.76,290.54 379.83,290.54 379.75,311.28 395.17,290.54 399.98,290.54 393.03,320.3 387.81,320.3 
		391.97,302.5 378.73,320.3 374.47,320.3 374.56,301.61 365.19,320.3 359.85,320.3 374.76,290.54 	"/>
	<polyline class="st2" points="434.45,290.54 450.45,290.54 448.46,295.82 438.08,295.82 435.7,301.97 446.14,301.97 444.17,307.21 
		433.68,307.21 430.64,315.1 441.19,315.1 439.23,320.3 423.03,320.3 434.45,290.54 	"/>
	<polyline class="st1" points="142.94,98.8 146.32,191.28 157.06,180.62 142.94,98.8 	"/>
	<polyline class="st1" points="52.2,215.87 129.57,165.29 144.4,168.05 52.2,215.87 	"/>
	<polyline class="st1" points="220.64,220.42 125.38,190.69 121.12,179.69 220.64,220.42 	"/>
	<polyline class="st1" points="137.57,175.37 142.7,177.62 143.13,181.42 138.63,184.01 133.71,181.94 133.29,177.96 137.57,175.37 
			"/>
	<polyline class="st1" points="126.07,195.01 136.78,198.49 104.45,279.26 86.45,279.26 126.07,195.01 	"/>
	<path class="st3" d="M108.77,191.78L50.89,221.8h54.85C105.7,211.89,106.66,201.84,108.77,191.78"/>
	<path class="st3" d="M139.39,129.2l-1.29-35.31L109.7,82.6l14.24,35.86l-67.07-7.89l40.31,54.23l-38.08,5.66l24.47,19.34
		l32.14-21.01C121.53,154.09,129.58,140.8,139.39,129.2"/>
	<path class="st3" d="M407.13,194.32l30.18-23.86l-38.08-5.66l40.31-54.23l-67.07,7.89l14.07-35.86l-35.67,14.24l7.72-67.1
		l-54.2,40.33l-5.49-38.1l-24.01,30.2L248.13,0.05l-26.76,62.12l-23.84-30.2l-5.67,38.1l-54.2-40.33l4.1,34.86l9.07,52.56
		c7.96-7.46,16.71-14,26.11-19.47C208.5,79.51,247.09,73.33,285,83.46c38.08,10.29,68.28,34.84,86.46,66.41
		c12.5,21.52,19.34,46.32,19.17,71.93h76.78l1.64-0.71L407.13,194.32"/>
</g>
</svg>
